<svg id="Layer_1" data-name="Layer 1" xmlns="http://www.w3.org/2000/svg" viewBox="0 0 223.98 68.12"><defs><style>.cls-1{fill:#fff;}.cls-2{fill:#ca5541;}.cls-3{font-size:15.21px;font-family:Montserrat-Light, Montserrat;font-weight:300;}.cls-3,.cls-7{fill:#c7523d;}.cls-4{letter-spacing:-0.01em;}.cls-5{letter-spacing:0em;}.cls-6{letter-spacing:0em;}.cls-7{font-size:25.99px;font-family:Montserrat-SemiBold, Montserrat;font-weight:600;}.cls-8{letter-spacing:-0.02em;}.cls-9{letter-spacing:-0.01em;}</style></defs><title>apple_btn</title><rect class="cls-1" width="223.98" height="68.12" rx="8.66"/><path class="cls-2" d="M14.91,28.83c-3.64,6.31-1.33,15.88,2.69,21.68,2,2.9,4,5.5,6.82,5.5h.16a8.54,8.54,0,0,0,3.16-.84,8.66,8.66,0,0,1,3.75-.89,8.08,8.08,0,0,1,3.57.86,7.71,7.71,0,0,0,3.41.82c3.14-.06,5.06-2.87,6.76-5.35a23.79,23.79,0,0,0,3-6.06v0a.35.35,0,0,0-.19-.43h0a9,9,0,0,1-5.45-8.23,9.23,9.23,0,0,1,4.37-7.72l0,0a.34.34,0,0,0,.15-.22.37.37,0,0,0-.05-.27,10.16,10.16,0,0,0-8-4.34,5.37,5.37,0,0,0-.7,0,13.94,13.94,0,0,0-5,1.26,8.11,8.11,0,0,1-2.4.71,7.92,7.92,0,0,1-2.49-.72,12,12,0,0,0-4.38-1.11H24A10.73,10.73,0,0,0,14.91,28.83Z" transform="translate(-1 -1)"/><path class="cls-2" d="M39.05,13a9.78,9.78,0,0,0-6.47,3.33,9.14,9.14,0,0,0-2.33,6.81.34.34,0,0,0,.32.31l.45,0a8.32,8.32,0,0,0,6.12-3.14,9.7,9.7,0,0,0,2.28-7A.36.36,0,0,0,39.05,13Z" transform="translate(-1 -1)"/><text class="cls-3" transform="translate(61.76 22.5)">D<tspan class="cls-4" x="12.56" y="0">o</tspan><tspan x="21.76" y="0">wnl</tspan><tspan class="cls-5" x="49.07" y="0">o</tspan><tspan class="cls-6" x="58.47" y="0">a</tspan><tspan x="67.35" y="0">d on t</tspan><tspan class="cls-6" x="111.14" y="0">h</tspan><tspan x="121.39" y="0">e</tspan></text><text class="cls-7" transform="translate(60.63 50.24)">App S<tspan class="cls-8" x="78.63" y="0">t</tspan><tspan x="89.18" y="0">o</tspan><tspan class="cls-9" x="105.94" y="0">r</tspan><tspan x="116.6" y="0">e</tspan></text></svg>