<svg id="Layer_1" data-name="Layer 1" xmlns="http://www.w3.org/2000/svg" viewBox="0 0 223.98 68.12"><defs><style>.cls-1{fill:#fff;}.cls-2{font-size:15.21px;font-family:Montserrat-Light, Montserrat;font-weight:300;}.cls-2,.cls-7{fill:#c34f3a;}.cls-3{letter-spacing:-0.03em;}.cls-4{letter-spacing:-0.02em;}.cls-5{letter-spacing:0em;}.cls-6{letter-spacing:0em;}.cls-7{font-size:25.4px;font-family:Montserrat-SemiBold, Montserrat;font-weight:600;}.cls-8{letter-spacing:-0.01em;}.cls-9{fill:#cd5643;}</style></defs><title>googl_btn</title><rect class="cls-1" width="223.98" height="68.12" rx="8.66"/><text class="cls-2" transform="translate(61.21 22.5)"><tspan class="cls-3">A</tspan><tspan class="cls-4" x="10.33" y="0">v</tspan><tspan x="18.11" y="0">ailable on t</tspan><tspan class="cls-5" x="100.62" y="0">h</tspan><tspan class="cls-6" x="110.87" y="0">e</tspan></text><text class="cls-7" transform="translate(58.88 50.24)">Google Pl<tspan class="cls-8" x="125.91" y="0">a</tspan><tspan x="141.07" y="0">y</tspan></text><path class="cls-9" d="M55.33,33.41l-8.54-4.92-7,6.78,6.41,6.2,9.14-5.27a1.62,1.62,0,0,0,0-2.79Z" transform="translate(-1.43 -0.22)"/><polygon class="cls-9" points="43.91 27.43 34.52 22.01 13.94 11.46 37.19 33.93 43.91 27.43"/><polygon class="cls-9" points="14.28 58.31 34.56 47.14 43.31 42.09 37.19 36.17 14.28 58.31"/><polygon class="cls-9" points="12.57 12.37 12.55 57.75 36.03 35.05 12.57 12.37"/></svg>