<svg id="Layer_1" data-name="Layer 1" xmlns="http://www.w3.org/2000/svg" viewBox="0 0 182.71 214.84"><defs><style>.cls-1{fill:#fff;}.cls-2{fill:#db6551;}</style></defs><title>logo</title><rect class="cls-1" width="126" height="126"/><rect class="cls-2" x="5.49" y="5.49" width="115.02" height="115.02"/><path class="cls-1" d="M30.59,171.76c-6.54,14-12.94,28.05-19.67,42.24L6,214.46l-.4-.73A383.67,383.67,0,0,0,25.7,176H10.92c-4.49,0-4.95.66-6.6,5.22h-2c.72-3.83,1-7.33,1.32-10.23H30Z"/><path class="cls-1" d="M56.81,213.86V212c4.22-.52,4.74-1.17,3.83-3.64s-2.14-5.78-3.51-9.88h-14c-1,2.93-2,5.46-2.92,8.13-1.43,4.22-.52,4.74,4.81,5.39v1.82H30V212c4.1-.52,5.14-1,7.41-6.82l13.46-34.13,2.08-.39c4.09,11.12,8.58,23.4,12.67,34.65,2.08,5.65,2.67,6.17,7.28,6.69v1.82Zm-6.5-34.64c-2.08,5.59-4.29,11.5-6.24,16.64H56.22Z"/><path class="cls-1" d="M114,214.38c-.85,0-1.56-.06-2.41-.13-4.74-.32-7.28-1.56-10.14-5.59-2.4-3.31-4.74-7.41-6.82-10.72-1.3-2.08-2.15-2.47-5.46-2.47H86.9v10.2c0,5.53.72,5.85,5.92,6.37v1.82H75.46V212c5.4-.58,5.85-.84,5.85-6.37V179.74c0-5.53-.71-5.72-5.85-6.31v-1.82H92c4.74,0,7.93.59,10.4,2.21a9.73,9.73,0,0,1,4.42,8.58c0,5.59-3.58,9.1-8.39,11.18,1.17,2,4,6.37,5.92,9.3a59.61,59.61,0,0,0,5.13,6.69,9.33,9.33,0,0,0,4.75,3ZM90,193.26c3.38,0,5.53-.52,7.15-1.89,2.54-1.88,3.58-4.48,3.58-8,0-7-4.62-9.49-9.62-9.49-1.89,0-3,.26-3.45.65s-.78,1.1-.78,2.79v15.93Z"/><path class="cls-1" d="M148.91,181.82a24.21,24.21,0,0,0-2.08-5.4c-1-1.75-1.69-2.21-5.26-2.21h-6.5v31.66c0,5.07.52,5.78,6.69,6.17v1.82H122.85V212c6-.39,6.56-1,6.56-6.17V174.21H123.5c-3.58,0-4.62.39-5.72,2.34a29.94,29.94,0,0,0-2.15,5.27h-1.95c.39-4,.78-8.06,1-11.7h1.49c1,1.56,1.69,1.49,3.51,1.49H145.4c1.82,0,2.34-.26,3.32-1.49h1.56c0,3,.26,7.73.58,11.5Z"/><path class="cls-1" d="M179.14,181.49c-1.11-4.29-2.93-8.51-9-8.51-5.07,0-6.83,3.7-6.83,7.08,0,4.49,2.86,6.76,8.26,9.56,7.8,4,11.18,7,11.18,13.19,0,6.83-5.92,12-14.3,12a27.16,27.16,0,0,1-9.95-2.15,87.69,87.69,0,0,1-1.75-9.75l2-.52c1.3,4.36,4.16,10,10.93,10a7.15,7.15,0,0,0,7.54-7.47c0-5-2.67-7-8.39-10.14C162,191.11,158.14,188,158.14,182c0-5.79,4.81-11.25,13.39-11.25a41.47,41.47,0,0,1,8.58,1.24c.26,2.34.52,4.94,1,9.16Z"/><path class="cls-1" d="M55.65,43.5h-30c0-.38-.07-.67-.07-1,0-4.5,0-9,0-13.49,0-.79.25-1,1-1q20.76,0,41.51,0c3.78,0,6.5,1.91,7.46,5.17a10.33,10.33,0,0,1,0,4.85,42.44,42.44,0,0,1-3.28,9.1Q61.06,73.28,49.82,99.36a1.78,1.78,0,0,1-2,1.28c-4.86-.06-9.73,0-14.6,0H31.92Z"/><path class="cls-1" d="M105,100.61h-1c-4.93,0-9.86,0-14.79,0a1.2,1.2,0,0,1-1.34-.9Q80,79.49,72.12,59.29c-.1-.25-.22-.48-.44-.94-.69,1.79-1.3,3.35-1.89,4.92q-7,18.28-14,36.58a1,1,0,0,1-1.14.78c-.7,0-1.41,0-2.27,0,.23-.6.39-1.05.57-1.5Q64.32,71.34,75.63,43.53c1-2.36,1.79-4.78,2.54-7.22,1.59-5.2-2.12-9-6.91-9H70l0-.25a15.21,15.21,0,0,1,1.51-.2A7.74,7.74,0,0,1,79,32Q88.51,57,98,82.1q3.33,8.76,6.65,17.52C104.8,99.9,104.87,100.19,105,100.61Z"/></svg>